<svg width="205" height="333" xmlns="http://www.w3.org/2000/svg" xmlns:xlink="http://www.w3.org/1999/xlink" xml:space="preserve" overflow="hidden"><defs><filter id="fx0" x="-10%" y="-10%" width="120%" height="120%" filterUnits="userSpaceOnUse" primitiveUnits="userSpaceOnUse"><feComponentTransfer color-interpolation-filters="sRGB"><feFuncR type="discrete" tableValues="0.929412 0.929412"/><feFuncG type="discrete" tableValues="0.490196 0.490196"/><feFuncB type="discrete" tableValues="0.192157 0.192157"/><feFuncA type="linear" slope="1" intercept="0"/></feComponentTransfer><feGaussianBlur stdDeviation="0 0"/></filter></defs><g transform="translate(-2205 -795)"><g filter="url(#fx0)" transform="translate(2255 885)"><g><path d="M60.666 23.7097C49.3639 23.7097 41.3717 28.7351 36.6895 38.7859 32.0072 48.8367 29.666 65.7293 29.666 89.4636 29.666 112.391 32.0475 129.061 36.8105 139.475 41.5736 149.889 49.3639 155.096 60.1816 155.096 70.8379 155.096 78.6081 149.809 83.4922 139.233 88.3763 128.658 90.8184 112.068 90.8184 89.4636 90.8184 73.56 89.8092 60.8451 87.791 51.3191 85.7728 41.7931 82.6042 34.81 78.2851 30.3699 73.9661 25.9298 68.0931 23.7097 60.666 23.7097ZM60.666 1.67067C80.4446 1.67067 95.097 8.85558 104.623 23.2254 114.149 37.5951 118.912 59.6746 118.912 89.4636 118.912 118.122 113.967 139.919 104.078 154.854 94.1888 169.789 79.4759 177.257 59.9394 177.257 21.1087 177.257 1.69336 147.992 1.69336 89.4636 1.69336 69.2006 3.85287 52.6108 8.17188 39.6941 12.4909 26.7775 18.8483 17.211 27.2441 10.9949 35.64 4.77873 46.7806 1.67067 60.666 1.67067Z" stroke="#BB250D" stroke-width="2" stroke-linejoin="round" stroke-miterlimit="10" fill="#FFC000" fill-rule="evenodd"/></g></g><path d="M2308.03 901.073C2296.73 901.073 2288.73 906.098 2284.05 916.149 2279.37 926.2 2277.03 943.092 2277.03 966.827 2277.03 989.754 2279.41 1006.42 2284.17 1016.84 2288.94 1027.25 2296.73 1032.46 2307.54 1032.46 2318.2 1032.46 2325.97 1027.17 2330.86 1016.6 2335.74 1006.02 2338.18 989.431 2338.18 966.827 2338.18 950.923 2337.17 938.208 2335.15 928.682 2333.14 919.156 2329.97 912.173 2325.65 907.733 2321.33 903.293 2315.46 901.073 2308.03 901.073ZM2308.03 879.034C2327.81 879.034 2342.46 886.219 2351.99 900.588 2361.51 914.958 2366.28 937.037 2366.28 966.827 2366.28 995.485 2361.33 1017.28 2351.44 1032.22 2341.55 1047.15 2326.84 1054.62 2307.3 1054.62 2268.47 1054.62 2249.06 1025.36 2249.06 966.827 2249.06 946.564 2251.22 929.974 2255.53 917.057 2259.85 904.14 2266.21 894.574 2274.61 888.358 2283 882.142 2294.14 879.034 2308.03 879.034Z" stroke="#BB250D" stroke-width="2" stroke-linejoin="round" stroke-miterlimit="10" fill="#FFC000" fill-rule="evenodd"/><text fill="#000000" fill-opacity="0" font-family="Arial,Arial_MSFontService,sans-serif" font-size="175.586" x="2249.06" y="1032.67">0</text></g></svg>