<svg width="206" height="333" xmlns="http://www.w3.org/2000/svg" xmlns:xlink="http://www.w3.org/1999/xlink" xml:space="preserve" overflow="hidden"><defs><filter id="fx0" x="-10%" y="-10%" width="120%" height="120%" filterUnits="userSpaceOnUse" primitiveUnits="userSpaceOnUse"><feComponentTransfer color-interpolation-filters="sRGB"><feFuncR type="discrete" tableValues="0.929412 0.929412"/><feFuncG type="discrete" tableValues="0.490196 0.490196"/><feFuncB type="discrete" tableValues="0.192157 0.192157"/><feFuncA type="linear" slope="1" intercept="0"/></feComponentTransfer><feGaussianBlur stdDeviation="0 0"/></filter><clipPath id="clip1"><rect x="0" y="1" width="113" height="174"/></clipPath></defs><g transform="translate(-1410 -522)"><g clip-path="url(#clip1)" filter="url(#fx0)" transform="translate(1468 614)"><g><path d="M47.4617 2.40858 73.4968 2.40858 73.4968 150.627 111.157 150.627 111.157 173.03 1.56714 173.03 1.56714 150.627 45.7664 150.627 45.7664 27.8383 5.80542 53.389 5.80542 30.2601Z" stroke="#BB250D" stroke-width="2" stroke-linejoin="round" stroke-miterlimit="10" fill="#FFC000" fill-rule="evenodd"/></g></g><path d="M1507.82 608.772 1533.86 608.772 1533.86 756.99 1571.52 756.99 1571.52 779.393 1461.93 779.393 1461.93 756.99 1506.13 756.99 1506.13 634.201 1466.17 659.752 1466.17 636.623Z" stroke="#BB250D" stroke-width="2" stroke-linejoin="round" stroke-miterlimit="10" fill="#FFC000" fill-rule="evenodd"/><text fill="#000000" fill-opacity="0" font-family="Arial,Arial_MSFontService,sans-serif" font-size="170.621" x="1461.93" y="758.065">1</text></g></svg>