<svg width="205" height="333" xmlns="http://www.w3.org/2000/svg" xmlns:xlink="http://www.w3.org/1999/xlink" xml:space="preserve" overflow="hidden"><defs><filter id="fx0" x="-10%" y="-10%" width="120%" height="120%" filterUnits="userSpaceOnUse" primitiveUnits="userSpaceOnUse"><feComponentTransfer color-interpolation-filters="sRGB"><feFuncR type="discrete" tableValues="0.929412 0.929412"/><feFuncG type="discrete" tableValues="0.490196 0.490196"/><feFuncB type="discrete" tableValues="0.192157 0.192157"/><feFuncA type="linear" slope="1" intercept="0"/></feComponentTransfer><feGaussianBlur stdDeviation="0 0"/></filter><clipPath id="clip1"><rect x="1" y="1" width="118" height="176"/></clipPath></defs><g transform="translate(-1604 -525)"><g clip-path="url(#clip1)" filter="url(#fx0)" transform="translate(1654 614)"><g><path d="M59.2853 2.33772C76.7228 2.33772 90.3055 6.47508 100.033 14.7498 109.761 23.0246 114.625 34.7101 114.625 49.8065 114.625 56.9106 113.233 63.5506 110.447 69.7264 107.662 75.9022 103.646 81.9972 98.3986 88.0115 93.1512 94.0259 84.5939 101.796 72.7267 111.322 52.06 127.71 39.1837 141.313 34.0978 152.131L117.289 152.131 117.289 175.502 2.49231 175.502 2.49231 156.006C6.52877 146.641 12.2605 137.438 19.6876 128.396 27.1147 119.355 37.0444 109.667 49.4767 99.3338 64.4116 86.9015 74.2807 77.2947 79.0841 70.5135 83.8875 63.7322 86.2892 57.1528 86.2892 50.7752 86.2892 42.5408 83.9884 36.1834 79.3868 31.703 74.7853 27.2225 68.2866 24.9823 59.8907 24.9823 43.7449 24.9823 34.5418 33.6606 32.2814 51.0174L4.18762 49.0799C5.88294 34.3872 11.5138 22.9237 21.0802 14.6893 30.6466 6.45491 43.3816 2.33772 59.2853 2.33772Z" stroke="#BB250D" stroke-width="2" stroke-linejoin="round" stroke-miterlimit="10" fill="#FFC000" fill-rule="evenodd"/></g></g><path d="M1705.65 608.701C1723.09 608.701 1736.67 612.838 1746.4 621.113 1756.12 629.388 1760.99 641.073 1760.99 656.169 1760.99 663.274 1759.6 669.914 1756.81 676.089 1754.03 682.265 1750.01 688.36 1744.76 694.375 1739.51 700.389 1730.96 708.159 1719.09 717.685 1698.42 734.073 1685.55 747.676 1680.46 758.494L1763.65 758.494 1763.65 781.865 1648.86 781.865 1648.86 762.369C1652.89 753.004 1658.62 743.801 1666.05 734.759 1673.48 725.718 1683.41 716.03 1695.84 705.697 1710.77 693.264 1720.64 683.658 1725.45 676.876 1730.25 670.095 1732.65 663.516 1732.65 657.138 1732.65 648.904 1730.35 642.546 1725.75 638.066 1721.15 633.585 1714.65 631.345 1706.25 631.345 1690.11 631.345 1680.9 640.024 1678.64 657.38L1650.55 655.443C1652.25 640.75 1657.88 629.287 1667.44 621.052 1677.01 612.818 1689.74 608.701 1705.65 608.701Z" stroke="#BB250D" stroke-width="2" stroke-linejoin="round" stroke-miterlimit="10" fill="#FFC000" fill-rule="evenodd"/><text fill="#000000" fill-opacity="0" font-family="Arial,Arial_MSFontService,sans-serif" font-size="173.164" x="1648.86" y="760.219">2</text></g></svg>