<svg width="205" height="333" xmlns="http://www.w3.org/2000/svg" xmlns:xlink="http://www.w3.org/1999/xlink" xml:space="preserve" overflow="hidden"><defs><filter id="fx0" x="-10%" y="-10%" width="120%" height="120%" filterUnits="userSpaceOnUse" primitiveUnits="userSpaceOnUse"><feComponentTransfer color-interpolation-filters="sRGB"><feFuncR type="discrete" tableValues="0.929412 0.929412"/><feFuncG type="discrete" tableValues="0.490196 0.490196"/><feFuncB type="discrete" tableValues="0.192157 0.192157"/><feFuncA type="linear" slope="1" intercept="0"/></feComponentTransfer><feGaussianBlur stdDeviation="0 0"/></filter></defs><g transform="translate(-1808 -527)"><g filter="url(#fx0)" transform="translate(1856 617)"><g><path d="M61.0775 1.80983C78.3536 1.80983 91.6335 5.74538 100.917 13.6165 110.201 21.4876 114.843 32.6484 114.843 47.0989 114.843 57.3515 111.957 66.0097 106.185 73.0735 100.413 80.1373 91.5528 84.9205 79.6049 87.4231L79.6049 87.9075C92.0371 89.2799 101.785 93.5182 108.849 100.622 115.913 107.726 119.445 116.768 119.445 127.747 119.445 143.893 114.419 156.225 104.369 164.741 94.3177 173.258 79.8874 177.517 61.0775 177.517 43.5593 177.517 29.7546 173.541 19.6635 165.589 9.57231 157.637 3.55798 145.75 1.62048 129.927L29.8353 127.384C31.127 136.749 34.3562 143.671 39.5228 148.152 44.6895 152.632 51.8744 154.872 61.0775 154.872 70.6843 154.872 78.0306 152.41 83.1166 147.486 88.2025 142.561 90.7455 135.538 90.7455 126.415 90.7455 118.019 87.597 111.501 81.3002 106.859 75.0033 102.217 65.7598 99.8958 53.5697 99.8958L41.097 99.8958 41.097 76.7669 52.9642 76.7669C63.8627 76.7669 72.2181 74.4863 78.0306 69.9251 83.8431 65.3639 86.7494 58.845 86.7494 50.3684 86.7494 41.6497 84.5091 35.1308 80.0287 30.8118 75.5482 26.4928 69.1101 24.3333 60.7142 24.3333 44.084 24.3333 34.8002 32.7695 32.8627 49.6419L5.2533 47.5833C6.94861 33.052 12.7207 21.7903 22.5697 13.7981 32.4187 5.80592 45.2546 1.80983 61.0775 1.80983Z" stroke="#BB250D" stroke-width="2" stroke-linejoin="round" stroke-miterlimit="10" fill="#FFC000" fill-rule="evenodd"/></g></g><path d="M1909.44 611.173C1926.72 611.173 1940 615.108 1949.28 622.979 1958.56 630.851 1963.21 642.011 1963.21 656.462 1963.21 666.714 1960.32 675.373 1954.55 682.436 1948.78 689.5 1939.92 694.283 1927.97 696.786L1927.97 697.27C1940.4 698.643 1950.15 702.881 1957.21 709.985 1964.28 717.089 1967.81 726.131 1967.81 737.11 1967.81 753.256 1962.78 765.588 1952.73 774.104 1942.68 782.621 1928.25 786.88 1909.44 786.88 1891.92 786.88 1878.12 782.904 1868.03 774.952 1857.94 767 1851.92 755.113 1849.98 739.29L1878.2 736.747C1879.49 746.112 1882.72 753.034 1887.89 757.515 1893.05 761.995 1900.24 764.235 1909.44 764.235 1919.05 764.235 1926.39 761.773 1931.48 756.849 1936.57 751.924 1939.11 744.901 1939.11 735.778 1939.11 727.382 1935.96 720.864 1929.66 716.222 1923.37 711.58 1914.12 709.259 1901.93 709.259L1889.46 709.259 1889.46 686.13 1901.33 686.13C1912.23 686.13 1920.58 683.849 1926.39 679.288 1932.21 674.727 1935.11 668.208 1935.11 659.731 1935.11 651.013 1932.87 644.494 1928.39 640.175 1923.91 635.856 1917.47 633.696 1909.08 633.696 1892.45 633.696 1883.16 642.132 1881.23 659.005L1853.62 656.946C1855.31 642.415 1861.08 631.153 1870.93 623.161 1880.78 615.169 1893.62 611.173 1909.44 611.173Z" stroke="#BB250D" stroke-width="2" stroke-linejoin="round" stroke-miterlimit="10" fill="#FFC000" fill-rule="evenodd"/><text fill="#000000" fill-opacity="0" font-family="Arial,Arial_MSFontService,sans-serif" font-size="175.707" x="1849.98" y="764.916">3</text></g></svg>