<svg width="205" height="333" xmlns="http://www.w3.org/2000/svg" xmlns:xlink="http://www.w3.org/1999/xlink" xml:space="preserve" overflow="hidden"><defs><filter id="fx0" x="-10%" y="-10%" width="120%" height="120%" filterUnits="userSpaceOnUse" primitiveUnits="userSpaceOnUse"><feComponentTransfer color-interpolation-filters="sRGB"><feFuncR type="discrete" tableValues="0.929412 0.929412"/><feFuncG type="discrete" tableValues="0.490196 0.490196"/><feFuncB type="discrete" tableValues="0.192157 0.192157"/><feFuncA type="linear" slope="1" intercept="0"/></feComponentTransfer><feGaussianBlur stdDeviation="0 0"/></filter><clipPath id="clip1"><rect x="0" y="1" width="131" height="173"/></clipPath></defs><g transform="translate(-2002 -527)"><g clip-path="url(#clip1)" filter="url(#fx0)" transform="translate(2046 619)"><g><path d="M77.6746 31.4153 26.2097 114.728 77.6746 114.728ZM72.2253 2.3528 104.436 2.3528 104.436 114.728 129.382 114.728 129.382 137.251 104.436 137.251 104.436 172.974 77.6746 172.974 77.6746 137.251 1.86987 137.251 1.86987 114.365Z" stroke="#BB250D" stroke-width="2" stroke-linejoin="round" stroke-miterlimit="10" fill="#FFC000" fill-rule="evenodd"/></g></g><path d="M2116.04 642.778 2064.57 726.091 2116.04 726.091ZM2110.59 613.716 2142.8 613.716 2142.8 726.091 2167.74 726.091 2167.74 748.614 2142.8 748.614 2142.8 784.337 2116.04 784.337 2116.04 748.614 2040.23 748.614 2040.23 725.727Z" stroke="#BB250D" stroke-width="2" stroke-linejoin="round" stroke-miterlimit="10" fill="#FFC000" fill-rule="evenodd"/><text fill="#000000" fill-opacity="0" font-family="Arial,Arial_MSFontService,sans-serif" font-size="170.621" x="2040.23" y="763.009">4</text></g></svg>