<svg width="205" height="333" xmlns="http://www.w3.org/2000/svg" xmlns:xlink="http://www.w3.org/1999/xlink" xml:space="preserve" overflow="hidden"><defs><filter id="fx0" x="-10%" y="-10%" width="120%" height="120%" filterUnits="userSpaceOnUse" primitiveUnits="userSpaceOnUse"><feComponentTransfer color-interpolation-filters="sRGB"><feFuncR type="discrete" tableValues="0.929412 0.929412"/><feFuncG type="discrete" tableValues="0.490196 0.490196"/><feFuncB type="discrete" tableValues="0.192157 0.192157"/><feFuncA type="linear" slope="1" intercept="0"/></feComponentTransfer><feGaussianBlur stdDeviation="0 0"/></filter><clipPath id="clip1"><rect x="0" y="1" width="120" height="176"/></clipPath></defs><g transform="translate(-2205 -527)"><g clip-path="url(#clip1)" filter="url(#fx0)" transform="translate(2255 619)"><g><path d="M12.7129 2.3528 108.861 2.3528 108.861 25.1184 37.1738 25.1184 34.2676 72.345C42.5827 65.5637 53.4408 62.1731 66.8418 62.1731 82.8262 62.1731 95.4401 67.0572 104.684 76.8254 113.927 86.5937 118.549 99.914 118.549 116.786 118.549 135.031 113.16 149.361 102.383 159.775 91.6055 170.189 76.6907 175.396 57.6387 175.396 41.8158 175.396 29.2018 171.783 19.7969 164.558 10.3919 157.333 4.43815 146.656 1.93555 132.529L29.7871 129.986C31.4017 136.202 33.3796 140.803 35.7207 143.79 38.0619 146.777 41.1296 149.078 44.9238 150.693 48.7181 152.307 53.36 153.115 58.8496 153.115 68.9407 153.115 76.6504 150.047 81.9785 143.911 87.3066 137.776 89.9707 128.936 89.9707 117.392 89.9707 107.301 87.3874 99.3489 82.2207 93.5364 77.054 87.7239 69.8288 84.8176 60.5449 84.8176 55.2975 84.8176 50.6152 85.6249 46.498 87.2395 42.3809 88.8541 38.1829 91.8007 33.9043 96.0794L7.26367 96.0794Z" stroke="#BB250D" stroke-width="2" stroke-linejoin="round" stroke-miterlimit="10" fill="#FFC000" fill-rule="evenodd"/></g></g><path d="M2260.08 613.716 2356.22 613.716 2356.22 636.481 2284.54 636.481 2281.63 683.708C2289.95 676.927 2300.8 673.536 2314.2 673.536 2330.19 673.536 2342.8 678.42 2352.05 688.188 2361.29 697.957 2365.91 711.277 2365.91 728.149 2365.91 746.394 2360.52 760.724 2349.75 771.138 2338.97 781.552 2324.05 786.759 2305 786.759 2289.18 786.759 2276.56 783.146 2267.16 775.921 2257.75 768.696 2251.8 758.019 2249.3 743.892L2277.15 741.349C2278.76 747.565 2280.74 752.166 2283.08 755.153 2285.42 758.14 2288.49 760.441 2292.29 762.056 2296.08 763.67 2300.72 764.477 2306.21 764.477 2316.3 764.477 2324.01 761.41 2329.34 755.274 2334.67 749.139 2337.33 740.299 2337.33 728.755 2337.33 718.664 2334.75 710.712 2329.58 704.899 2324.42 699.087 2317.19 696.181 2307.91 696.181 2302.66 696.181 2297.98 696.988 2293.86 698.602 2289.74 700.217 2285.55 703.164 2281.27 707.442L2254.63 707.442Z" stroke="#BB250D" stroke-width="2" stroke-linejoin="round" stroke-miterlimit="10" fill="#FFC000" fill-rule="evenodd"/><text fill="#000000" fill-opacity="0" font-family="Arial,Arial_MSFontService,sans-serif" font-size="173.043" x="2249.3" y="765.128">5</text></g></svg>