<svg width="206" height="333" xmlns="http://www.w3.org/2000/svg" xmlns:xlink="http://www.w3.org/1999/xlink" xml:space="preserve" overflow="hidden"><defs><filter id="fx0" x="-10%" y="-10%" width="120%" height="120%" filterUnits="userSpaceOnUse" primitiveUnits="userSpaceOnUse"><feComponentTransfer color-interpolation-filters="sRGB"><feFuncR type="discrete" tableValues="0.929412 0.929412"/><feFuncG type="discrete" tableValues="0.490196 0.490196"/><feFuncB type="discrete" tableValues="0.192157 0.192157"/><feFuncA type="linear" slope="1" intercept="0"/></feComponentTransfer><feGaussianBlur stdDeviation="0 0"/></filter></defs><g transform="translate(-1410 -790)"><g filter="url(#fx0)" transform="translate(1462 880)"><g><path d="M60.364 85.6444C51.8874 85.6444 44.9649 88.3287 39.5964 93.6972 34.2279 99.0656 31.5437 106.311 31.5437 115.433 31.5437 126.978 34.2481 136.524 39.657 144.072 45.0658 151.62 52.2507 155.394 61.2117 155.394 70.2533 155.394 77.2768 152.246 82.282 145.949 87.2872 139.652 89.7898 131.014 89.7898 120.035 89.7898 109.137 87.2065 100.68 82.0398 94.6659 76.8731 88.6516 69.6479 85.6444 60.364 85.6444ZM64.4812 1.72646C77.6401 1.72646 88.155 4.51161 96.0261 10.0819 103.897 15.6522 109.69 24.815 113.403 37.5702L87.1257 41.8085C83.5736 29.8606 75.8236 23.8866 63.8757 23.8866 41.1101 23.8866 29.5658 44.19 29.2429 84.7968 33.1986 78.2577 38.4864 73.2727 45.1062 69.8417 51.726 66.4107 59.3145 64.6952 67.8718 64.6952 83.0489 64.6952 95.1583 69.5389 104.2 79.2264 113.242 88.9139 117.762 102.194 117.762 119.066 117.762 137.23 112.838 151.479 102.989 161.812 93.1401 172.146 79.4968 177.312 62.0593 177.312 42.6036 177.312 27.7091 170.349 17.3757 156.424 7.0424 142.498 1.87573 121.529 1.87573 93.5155 1.87573 63.2421 7.10295 40.3755 17.5574 24.9159 28.0118 9.45628 43.6531 1.72646 64.4812 1.72646Z" stroke="#BB250D" stroke-width="2" stroke-linejoin="round" stroke-miterlimit="10" fill="#FFC000" fill-rule="evenodd"/></g></g><path d="M1514.73 958.007C1506.25 958.007 1499.33 960.692 1493.96 966.06 1488.59 971.429 1485.91 978.674 1485.91 987.796 1485.91 999.341 1488.61 1008.89 1494.02 1016.44 1499.43 1023.98 1506.61 1027.76 1515.57 1027.76 1524.62 1027.76 1531.64 1024.61 1536.65 1018.31 1541.65 1012.02 1544.15 1003.38 1544.15 992.398 1544.15 981.5 1541.57 973.043 1536.4 967.029 1531.24 961.014 1524.01 958.007 1514.73 958.007ZM1518.84 874.089C1532 874.089 1542.52 876.875 1550.39 882.445 1558.26 888.015 1564.05 897.178 1567.77 909.933L1541.49 914.171C1537.94 902.224 1530.19 896.25 1518.24 896.25 1495.47 896.25 1483.93 916.553 1483.61 957.16 1487.56 950.621 1492.85 945.636 1499.47 942.205 1506.09 938.774 1513.68 937.058 1522.23 937.058 1537.41 937.058 1549.52 941.902 1558.56 951.589 1567.6 961.277 1572.13 974.557 1572.13 991.429 1572.13 1009.59 1567.2 1023.84 1557.35 1034.18 1547.5 1044.51 1533.86 1049.68 1516.42 1049.68 1496.97 1049.68 1482.07 1042.71 1471.74 1028.79 1461.41 1014.86 1456.24 993.891 1456.24 965.878 1456.24 935.605 1461.47 912.738 1471.92 897.279 1482.37 881.819 1498.02 874.089 1518.84 874.089Z" stroke="#BB250D" stroke-width="2" stroke-linejoin="round" stroke-miterlimit="10" fill="#FFC000" fill-rule="evenodd"/><text fill="#000000" fill-opacity="0" font-family="Arial,Arial_MSFontService,sans-serif" font-size="175.586" x="1456.24" y="1027.73">6</text></g></svg>