<svg width="205" height="333" xmlns="http://www.w3.org/2000/svg" xmlns:xlink="http://www.w3.org/1999/xlink" xml:space="preserve" overflow="hidden"><defs><filter id="fx0" x="-10%" y="-10%" width="120%" height="120%" filterUnits="userSpaceOnUse" primitiveUnits="userSpaceOnUse"><feComponentTransfer color-interpolation-filters="sRGB"><feFuncR type="discrete" tableValues="0.929412 0.929412"/><feFuncG type="discrete" tableValues="0.490196 0.490196"/><feFuncB type="discrete" tableValues="0.192157 0.192157"/><feFuncA type="linear" slope="1" intercept="0"/></feComponentTransfer><feGaussianBlur stdDeviation="0 0"/></filter></defs><g transform="translate(-1604 -793)"><g filter="url(#fx0)" transform="translate(1656 885)"><g><path d="M1.58215 1.74147 114.926 1.74147 114.926 24.1438C99.7488 47.636 88.4669 67.0917 81.0802 82.511 73.6935 97.9303 68.0828 112.966 64.2482 127.618 60.4135 142.271 58.4962 157.185 58.4962 172.363L29.6759 172.363C29.6759 150.969 34.0756 128.89 42.8751 106.124 51.6746 83.3587 66.9324 56.3547 88.6486 25.1126L1.58215 25.1126Z" stroke="#BB250D" stroke-width="2" stroke-linejoin="round" stroke-miterlimit="10" fill="#FFC000" fill-rule="evenodd"/></g></g><path d="M1649.95 879.104 1763.29 879.104 1763.29 901.507C1748.11 924.999 1736.83 944.455 1729.44 959.874 1722.06 975.293 1716.45 990.329 1712.61 1004.98 1708.78 1019.63 1706.86 1034.55 1706.86 1049.73L1678.04 1049.73C1678.04 1028.33 1682.44 1006.25 1691.24 983.487 1700.04 960.722 1715.3 933.718 1737.01 902.476L1649.95 902.476Z" stroke="#BB250D" stroke-width="2" stroke-linejoin="round" stroke-miterlimit="10" fill="#FFC000" fill-rule="evenodd"/><text fill="#000000" fill-opacity="0" font-family="Arial,Arial_MSFontService,sans-serif" font-size="170.621" x="1649.95" y="1028.4">7</text></g></svg>