<svg width="205" height="333" xmlns="http://www.w3.org/2000/svg" xmlns:xlink="http://www.w3.org/1999/xlink" xml:space="preserve" overflow="hidden"><defs><filter id="fx0" x="-10%" y="-10%" width="120%" height="120%" filterUnits="userSpaceOnUse" primitiveUnits="userSpaceOnUse"><feComponentTransfer color-interpolation-filters="sRGB"><feFuncR type="discrete" tableValues="0.929412 0.929412"/><feFuncG type="discrete" tableValues="0.490196 0.490196"/><feFuncB type="discrete" tableValues="0.192157 0.192157"/><feFuncA type="linear" slope="1" intercept="0"/></feComponentTransfer><feGaussianBlur stdDeviation="0 0"/></filter></defs><g transform="translate(-1808 -795)"><g filter="url(#fx0)" transform="translate(1858 885)"><g><path d="M59.5619 95.2761C50.278 95.2761 43.0528 97.9604 37.8861 103.329 32.7194 108.697 30.1361 115.943 30.1361 125.065 30.1361 135.641 32.6993 143.633 37.8256 149.042 42.9519 154.451 50.4799 157.155 60.4095 157.155 70.5007 157.155 77.9076 154.491 82.6302 149.163 87.3529 143.835 89.7142 135.641 89.7142 124.581 89.7142 115.216 87.1511 107.991 82.0248 102.905 76.8985 97.8191 69.4108 95.2761 59.5619 95.2761ZM59.683 21.7722C42.4877 21.7722 33.89 30.5314 33.89 48.0496 33.89 56.7683 36.1504 63.4688 40.6713 68.1511 45.1921 72.8334 51.6101 75.1746 59.9252 75.1746 68.2403 75.1746 74.6179 72.894 79.058 68.3328 83.4981 63.7716 85.7181 57.0105 85.7181 48.0496 85.7181 30.5314 77.0397 21.7722 59.683 21.7722ZM59.683 1.67067C76.8783 1.67067 90.2793 5.50529 99.8861 13.1746 109.493 20.8439 114.296 31.7019 114.296 45.7488 114.296 55.2748 111.551 63.711 106.062 71.0574 100.572 78.4037 93.3067 83.0053 84.265 84.8621L84.265 85.3464C95.002 87.2839 103.378 91.9057 109.392 99.2117 115.406 106.518 118.413 115.781 118.413 127.003 118.413 143.229 113.408 155.662 103.398 164.3 93.3874 172.938 78.9772 177.257 60.1674 177.257 41.4382 177.257 27.0078 172.897 16.8763 164.178 6.74483 155.46 1.67908 143.149 1.67908 127.245 1.67908 116.427 4.74679 107.264 10.8822 99.7566 17.0176 92.2488 25.2116 87.5261 35.4642 85.5886L35.4642 85.1043C26.5033 82.9246 19.278 78.1616 13.7885 70.8152 8.29887 63.4688 5.55408 55.0326 5.55408 45.5066 5.55408 32.0248 10.3373 21.3484 19.9037 13.4773 29.4701 5.60622 42.7299 1.67067 59.683 1.67067Z" stroke="#BB250D" stroke-width="2" stroke-linejoin="round" stroke-miterlimit="10" fill="#FFC000" fill-rule="evenodd"/></g></g><path d="M1909.92 972.639C1900.64 972.639 1893.42 975.323 1888.25 980.692 1883.08 986.06 1880.5 993.306 1880.5 1002.43 1880.5 1013 1883.06 1021 1888.19 1026.4 1893.31 1031.81 1900.84 1034.52 1910.77 1034.52 1920.86 1034.52 1928.27 1031.85 1932.99 1026.53 1937.72 1021.2 1940.08 1013 1940.08 1001.94 1940.08 992.579 1937.51 985.354 1932.39 980.268 1927.26 975.182 1919.77 972.639 1909.92 972.639ZM1910.05 899.135C1892.85 899.135 1884.25 907.894 1884.25 925.412 1884.25 934.131 1886.51 940.832 1891.03 945.514 1895.56 950.196 1901.97 952.537 1910.29 952.537 1918.6 952.537 1924.98 950.257 1929.42 945.696 1933.86 941.134 1936.08 934.373 1936.08 925.412 1936.08 907.894 1927.4 899.135 1910.05 899.135ZM1910.05 879.034C1927.24 879.034 1940.64 882.868 1950.25 890.537 1959.86 898.207 1964.66 909.065 1964.66 923.112 1964.66 932.638 1961.91 941.074 1956.42 948.42 1950.94 955.767 1943.67 960.368 1934.63 962.225L1934.63 962.709C1945.36 964.647 1953.74 969.269 1959.75 976.575 1965.77 983.881 1968.78 993.144 1968.78 1004.37 1968.78 1020.59 1963.77 1033.02 1953.76 1041.66 1943.75 1050.3 1929.34 1054.62 1910.53 1054.62 1891.8 1054.62 1877.37 1050.26 1867.24 1041.54 1857.11 1032.82 1852.04 1020.51 1852.04 1004.61 1852.04 993.79 1855.11 984.627 1861.25 977.12 1867.38 969.612 1875.57 964.889 1885.83 962.952L1885.83 962.467C1876.87 960.287 1869.64 955.524 1864.15 948.178 1858.66 940.832 1855.92 932.396 1855.92 922.87 1855.92 909.388 1860.7 898.711 1870.27 890.84 1879.83 882.969 1893.09 879.034 1910.05 879.034Z" stroke="#BB250D" stroke-width="2" stroke-linejoin="round" stroke-miterlimit="10" fill="#FFC000" fill-rule="evenodd"/><text fill="#000000" fill-opacity="0" font-family="Arial,Arial_MSFontService,sans-serif" font-size="175.586" x="1852.04" y="1032.67">8</text></g></svg>