<svg width="205" height="333" xmlns="http://www.w3.org/2000/svg" xmlns:xlink="http://www.w3.org/1999/xlink" xml:space="preserve" overflow="hidden"><defs><filter id="fx0" x="-10%" y="-10%" width="120%" height="120%" filterUnits="userSpaceOnUse" primitiveUnits="userSpaceOnUse"><feComponentTransfer color-interpolation-filters="sRGB"><feFuncR type="discrete" tableValues="0.929412 0.929412"/><feFuncG type="discrete" tableValues="0.490196 0.490196"/><feFuncB type="discrete" tableValues="0.192157 0.192157"/><feFuncA type="linear" slope="1" intercept="0"/></feComponentTransfer><feGaussianBlur stdDeviation="0 0"/></filter><clipPath id="clip1"><rect x="1" y="0" width="119" height="179"/></clipPath></defs><g transform="translate(-2002 -795)"><g clip-path="url(#clip1)" filter="url(#fx0)" transform="translate(2051 885)"><g><path d="M58.7488 23.7097C49.6264 23.7097 42.5828 26.7371 37.6179 32.7918 32.6531 38.8464 30.1707 47.323 30.1707 58.2214 30.1707 69.2813 32.6934 77.8992 37.739 84.075 42.7846 90.2507 49.7878 93.3386 58.7488 93.3386 67.3868 93.3386 74.5111 90.5938 80.1218 85.1043 85.7325 79.6147 88.5378 72.3087 88.5378 63.1863 88.5378 51.3998 85.8738 41.8738 80.5456 34.6082 75.2175 27.3425 67.9519 23.7097 58.7488 23.7097ZM59.4753 1.67067C79.0118 1.67067 93.6641 8.63356 103.432 22.5593 113.201 36.4851 118.085 57.7774 118.085 86.4363 118.085 116.468 112.817 139.112 102.282 154.37 91.7468 169.628 76.1459 177.257 55.4792 177.257 41.2709 177.257 30.0496 174.209 21.8152 168.114 13.5808 162.019 7.72795 152.715 4.25659 140.202L30.5339 136.206C34.4089 148.88 42.9259 155.218 56.0847 155.218 78.366 155.218 89.9102 134.995 90.7175 94.5496 87.4076 100.766 82.2208 105.67 75.157 109.262 68.0932 112.855 60.2019 114.651 51.4832 114.651 36.3061 114.651 24.2774 109.626 15.3972 99.575 6.51701 89.5242 2.07691 75.6589 2.07691 57.9793 2.07691 40.2188 7.08211 26.394 17.0925 16.5047 27.1029 6.61534 41.2305 1.67067 59.4753 1.67067Z" stroke="#BB250D" stroke-width="2" stroke-linejoin="round" stroke-miterlimit="10" fill="#FFC000" fill-rule="evenodd"/></g></g><path d="M2102.11 901.073C2092.99 901.073 2085.95 904.1 2080.98 910.155 2076.02 916.209 2073.53 924.686 2073.53 935.584 2073.53 946.644 2076.06 955.262 2081.1 961.438 2086.15 967.614 2093.15 970.702 2102.11 970.702 2110.75 970.702 2117.87 967.957 2123.48 962.467 2129.1 956.978 2131.9 949.672 2131.9 940.549 2131.9 928.763 2129.24 919.237 2123.91 911.971 2118.58 904.705 2111.31 901.073 2102.11 901.073ZM2102.84 879.034C2122.37 879.034 2137.03 885.996 2146.8 899.922 2156.56 913.848 2161.45 935.14 2161.45 963.799 2161.45 993.83 2156.18 1016.47 2145.64 1031.73 2135.11 1046.99 2119.51 1054.62 2098.84 1054.62 2084.63 1054.62 2073.41 1051.57 2065.18 1045.48 2056.94 1039.38 2051.09 1030.08 2047.62 1017.56L2073.9 1013.57C2077.77 1026.24 2086.29 1032.58 2099.45 1032.58 2121.73 1032.58 2133.27 1012.36 2134.08 971.912 2130.77 978.129 2125.58 983.033 2118.52 986.625 2111.46 990.218 2103.56 992.014 2094.85 992.014 2079.67 992.014 2067.64 986.989 2058.76 976.938 2049.88 966.887 2045.44 953.022 2045.44 935.342 2045.44 917.582 2050.45 903.757 2060.46 893.868 2070.47 883.978 2084.59 879.034 2102.84 879.034Z" stroke="#BB250D" stroke-width="2" stroke-linejoin="round" stroke-miterlimit="10" fill="#FFC000" fill-rule="evenodd"/><text fill="#000000" fill-opacity="0" font-family="Arial,Arial_MSFontService,sans-serif" font-size="175.586" x="2045.44" y="1032.67">9</text></g></svg>